<svg width="1440" height="237" viewBox="0 0 1440 237" fill="none" xmlns="http://www.w3.org/2000/svg">
<path d="M0 237H1440V58.8414H720H0V237ZM0 23.5365L360 0L720 11.7683L1089.5 23.5365L1440 0V58.8414H720H0V23.5365ZM0 237H1440V58.8414H720H0V237ZM0 23.5365L360 0L720 11.7683L1089.5 23.5365L1440 0V58.8414H720H0V23.5365Z" fill="#2435A1"/>
<path fill-rule="evenodd" clip-rule="evenodd" d="M0 237H1440V58.8414H720H0V237ZM0 23.5365L360 0L720 11.7683L1089.5 23.5365L1440 0V58.8414H720H0V23.5365ZM0 237H1440V58.8414H720H0V237ZM0 23.5365L360 0L720 11.7683L1089.5 23.5365L1440 0V58.8414H720H0V23.5365Z" fill="#2435A1"/>
</svg>
